<svg width="600" height="400" xmlns="http://www.w3.org/2000/svg" xmlns:xlink="http://www.w3.org/1999/xlink" fill-rule="evenodd" viewBox="0 0 400 400"><path d="M255.333 44.112c-15.692.693-26.211 2.857-44.166 9.084l-8.834 3.06-3.085 1.089c-.446.176-.867.087-3.833-.814-31.331-9.517-51.864-12.407-65.869-9.27-15.165 3.397-29.793 13.386-42.453 28.989-.818 1.008-2.621 2.996-4.007 4.417-10.156 10.413-14.846 21.041-14.541 32.95.194 7.56 3.12 13.136 9.466 18.04 2.639 2.04 6.611 4.343 6.428 3.728-.77-2.587-2.265-12.949-2.617-18.135-1.785-26.325 13.314-47.349 37.706-52.499 9.165-1.935 21.886-1.582 35.889.998 7.896 1.454 20.749 4.205 21.059 4.506.033.032-.867.522-2 1.089-10.214 5.114-19.502 12.345-24.67 19.206-.566.752-2.5 2.867-4.298 4.7-15.919 16.234-25.371 34.039-29.242 55.087-6.397 34.784 6.479 56.796 38.651 66.074 11.182 3.224 23.864 4.088 34.083 2.32 17.94-3.104 36.28-14.273 52.84-32.18 1.679-1.816 3.958-4.161 5.065-5.211 13.183-12.519 18.386-21.097 19.254-31.745.411-5.048-1.707-10.369-6.334-15.91-.451-.54-.408-.66-1.077 2.991-4.316 23.545-14.189 40.388-30.51 52.044-12.06 8.614-26.942 12.944-44.488 12.946-30.493.002-47.518-12.226-49.263-35.382-2.306-30.597 18.19-71.076 45.096-89.066 3.458-2.312 6.121-3.744 6.75-3.63 1.728.315 3.538.806 3.75 1.019.134.133 1.538.606 3.122 1.05l19.378 5.451 7.75 2.159c5.161 1.411 22.736 5.714 29.5 7.222l8.217 1.931 1.466.426 1.412-.853c3.81-2.301 8.396-4.067 16.664-6.416 16.7-4.744 23.643-10.73 23.188-19.989-.694-14.127-18.742-22.655-45.447-21.476m5.334 10.724c12.07.829 22.504 4.324 27.46 9.198 5.534 5.442-.745 10.403-13.127 10.372-7.734-.018-15.275-1.366-46-8.218l-19.458-4.54c.836-.46 9.18-2.743 13.541-3.704 11.566-2.55 27.061-3.831 37.584-3.108" fill="#fb0404"/><path d="M270.147 198.094c-9.322 10.494-12.874 22.13-10.893 35.684.234 1.602 1.04 5.562 1.157 5.686.094.099 2.696-2.783 3.804-4.214 8.53-11.013 11.159-22.562 8.297-36.445-.624-3.027-.375-2.952-2.365-.711m30.136-1.648c-1.292 2.091-2.007 14.344-1.136 19.471 1.386 8.154 6.31 17.56 12.073 23.062l.589.563.173-.646c3.258-12.188 1.332-24.865-5.295-34.842-2.236-3.367-6.15-8.018-6.404-7.608m-59.354 13.429c-3.561 15.735.107 29.757 10.671 40.785l1.19 1.243.353-1.577c3.467-15.488.021-28.815-10.417-40.284-1.515-1.665-1.459-1.66-1.797-.167m88.491.324c-10.063 10.674-13.697 24.527-10.417 39.718.471 2.182.383 2.17 2.061.272 10.33-11.686 13.687-24.456 10.41-39.606-.472-2.183-.375-2.165-2.054-.384M225 240.024c0 2.65 5.246 13.122 8.684 17.334 4.893 5.997 13.835 11.643 21.862 13.807 1.051.283 1.041.33.375-1.772-4.605-14.543-13.863-23.91-28.497-28.833-2.377-.8-2.424-.81-2.424-.536m119.833.458c-14.84 4.946-24.583 14.87-28.852 29.389-.478 1.624-.491 1.616 1.557.967 13.442-4.256 22.497-12.521 27.687-25.271.624-1.533 1.942-5.365 1.942-5.647 0-.174-.455-.064-2.334.562M330 273.447c-9.638.55-19.075 4.751-26.729 11.899-1.545 1.443-1.621 1.341 1.479 1.97 13.274 2.695 24.808.213 35.178-7.571 2.326-1.747 5.307-4.412 5.126-4.585-.462-.441-6.412-1.427-10.024-1.661-2.374-.154-3.105-.162-5.03-.052m-94 .152l-2.167.244c-1.881.211-6.525 1.115-6.717 1.308-.203.202 2.514 2.673 4.973 4.523 6.279 4.723 12.206 7.263 19.494 8.352 4.601.687 16.174-.164 18.392-1.354.797-.427-7.75-6.791-11.975-8.916-6.487-3.262-15.283-4.924-22-4.157m35.75 18.168c-10.41.769-18.779 4.407-26.375 11.466-1.885 1.751-1.885 1.606-.011 2.058 8.773 2.118 19.032 1.481 26.36-1.637l1.193-.508.458.513c.584.653.605.557-.413 1.924-1.932 2.596-4.622 4.911-7.254 6.244-.573.29-1.041.587-1.041.659 0 .138 2.737 6.723 2.913 7.008.133.215 2.384-.907 4.253-2.119 3.739-2.425 6.182-5.001 10.247-10.806 1.68-2.399 3.996-5.402 4.166-5.402.101 0 3.902 5.136 5.069 6.85 2.681 3.94 5.54 6.92 8.603 8.968 1.725 1.154 4.71 2.776 4.85 2.635.037-.036.736-1.67 1.554-3.629l1.486-3.562-1.363-.727c-2.552-1.362-4.844-3.35-6.846-5.938-1.31-1.694-2.655-3.597-2.543-3.597.048 0 1.467.556 3.155 1.236 8.577 3.456 16.527 4.055 26.372 1.988 2.442-.513 2.34-.387 1.171-1.435-11.595-10.397-24.761-14.114-39.696-11.209l-2.025.394-1.975-.392c-3.556-.707-9.551-1.186-12.308-.982" fill="#040504"/><path d="M299.079 194.778c-5.102 16.37-.855 33.427 11.373 45.68 2.234 2.239 2.101 2.214 2.621.5 2.71-8.945 2.686-19.591-.061-27.678-2.323-6.837-7.497-14.738-12.5-19.089l-.983-.855-.45 1.442m-28.916 1.012c-10.943 11.135-15.075 25.105-12.065 40.793.47 2.454 1.377 5.75 1.581 5.75.852 0 6.427-6.584 8.92-10.535 6.814-10.8 8.417-23.894 4.541-37.09-.457-1.555-.346-1.595-2.977 1.082m1.909.973c3.607 14.374 1.026 27.018-7.857 38.487-1.108 1.431-3.71 4.313-3.804 4.214-.117-.124-.923-4.084-1.157-5.686-1.981-13.554 1.571-25.19 10.893-35.684 1.705-1.92 1.766-1.962 1.925-1.331m31.96 3.625c8.802 11.018 11.633 24.732 7.95 38.508l-.173.646-.589-.563c-5.763-5.502-10.687-14.908-12.073-23.062-.871-5.127-.156-17.38 1.136-19.471.134-.216 1.97 1.715 3.749 3.942m-63.586 5.4c-1.193 1.982-2.34 9.521-2.352 15.462-.022 10.855 2.836 18.886 9.848 27.667 1.475 1.846 5.226 5.75 5.525 5.75.44 0 1.875-6.513 2.296-10.417 1.432-13.288-2.479-24.916-11.867-35.282-1.547-1.709-3.34-3.361-3.45-3.18m89.667 1.376c-12.442 11.895-16.913 28.993-11.981 45.824.59 2.01.478 2.022 2.723-.276 12.312-12.598 16.492-29.452 11.333-45.7l-.446-1.405-1.629 1.557m-87.387 2.878c10.438 11.469 13.884 24.796 10.417 40.284l-.353 1.577-1.19-1.243c-10.564-11.028-14.232-25.05-10.671-40.785.338-1.493.282-1.498 1.797.167m88.748.541c3.277 15.15-.08 27.92-10.41 39.606-1.678 1.898-1.59 1.91-2.061-.272-3.28-15.191.354-29.044 10.417-39.718 1.679-1.781 1.582-1.799 2.054.384m-108.639 27.375c.019 3.702 5.082 14.621 9.254 19.959 5.473 7.001 15.331 13.065 24.792 15.25 1.959.453 1.849.537 1.455-1.117-4.09-17.12-16.245-29.498-33.282-33.891-2.244-.578-2.221-.576-2.219-.201m125.037-.029c-16.628 3.643-29.581 16.304-33.88 33.119-.726 2.84-.773 2.823 3.747 1.423 16.581-5.133 27.707-17.265 31.499-34.346.117-.526.13-.524-1.366-.196m-120.448 2.631c14.634 4.923 23.892 14.29 28.497 28.833.666 2.102.676 2.055-.375 1.772-6.762-1.823-15.107-6.66-19.731-11.438-4.35-4.496-8.56-11.868-10.466-18.328-.552-1.872-.753-1.79 2.075-.839m119.743-.64c0 .282-1.318 4.114-1.942 5.647-5.19 12.75-14.245 21.015-27.687 25.271-2.048.649-2.035.657-1.557-.967 3.646-12.4 11.538-21.724 22.852-26.998 3.446-1.607 8.334-3.339 8.334-2.953m-111.584 32.104c-3.429.27-10.205 1.634-11.378 2.291-.349.195 3.061 3.638 5.628 5.684 10.526 8.387 21.918 11.388 35.412 9.329 2.317-.353 6.289-1.286 7.255-1.704l.583-.252-2.166-2.159c-9.876-9.84-21.719-14.261-35.334-13.189m91.46.062c-9.51 1.204-18.716 5.897-26.123 13.317l-1.997 2 1.497.478c11.544 3.688 25.027 2.436 34.945-3.246 4.505-2.581 12.635-9.114 12.635-10.154 0-.359-5.049-1.637-8.833-2.235-2.45-.387-9.587-.482-12.124-.16m7.987 1.413c3.612.234 9.562 1.22 10.024 1.661.181.173-2.8 2.838-5.126 4.585-10.37 7.784-21.904 10.266-35.178 7.571-3.1-.629-3.024-.527-1.479-1.97 6.838-6.386 15.395-10.572 23.682-11.586 3.506-.429 4.831-.472 8.077-.261m-88.873.416c7.91 1.252 15.1 4.783 21.902 10.755 1.488 1.308 2.073 1.918 1.916 2.002-2.218 1.19-13.791 2.041-18.392 1.354-7.288-1.089-13.215-3.629-19.494-8.352-2.459-1.85-5.176-4.321-4.973-4.523.192-.193 4.836-1.097 6.717-1.308l2.167-.244c1.45-.166 8.5.054 10.157.316m23.676 16.357c-.229.033-1.091.143-1.916.244-8.743 1.069-17.652 5.623-24.827 12.689-2.624 2.584-2.597 2.437-.558 3.026 9.211 2.663 19.679 2.535 27.921-.341 1.621-.566-3.809 3.712-6.113 4.816l-1.799.874c-.045.035 3.874 9.449 4.14 9.946.29.542 4.631-1.692 7.555-3.887 3.332-2.502 5.025-4.381 9.187-10.197 1.378-1.926 2.588-3.529 2.689-3.563.197-.065 1.738 1.938 3.719 4.837 3.427 5.012 6.466 8.018 10.752 10.634 1.145.699 4.932 2.524 5.032 2.424.095-.095 4.218-10.014 4.218-10.148 0-.074-.201-.211-.446-.304-2.146-.816-4.624-2.403-6.379-4.087-1.488-1.427-1.471-1.526.167-.969 6.134 2.087 14.406 2.447 22.409.975 1.586-.292 4.781-1.117 5.565-1.437l.556-.227-2.067-1.997c-11.495-11.105-25.771-15.41-41.481-12.507l-2.157.398-2.125-.391c-4.249-.783-11.376-1.193-14.042-.808m10 1.83a62.04 62.04 0 0 1 4.225.647l1.975.392 2.025-.394c14.935-2.905 28.101.812 39.696 11.209 1.169 1.048 1.271.922-1.171 1.435-9.845 2.067-17.795 1.468-26.372-1.988l-3.155-1.236c-.112 0 1.233 1.903 2.543 3.597 2.002 2.588 4.294 4.576 6.846 5.938l1.363.727-1.486 3.562-1.554 3.629c-.14.141-3.125-1.481-4.85-2.635-3.063-2.048-5.922-5.028-8.603-8.968-1.167-1.714-4.968-6.85-5.069-6.85-.17 0-2.486 3.003-4.166 5.402-4.065 5.805-6.508 8.381-10.247 10.806-1.869 1.212-4.12 2.334-4.253 2.119-.176-.285-2.913-6.87-2.913-7.008 0-.072.468-.369 1.041-.659 2.632-1.333 5.322-3.648 7.254-6.244 1.018-1.367.997-1.271.413-1.924l-.458-.513-1.193.508c-7.328 3.118-17.587 3.755-26.36 1.637-1.874-.452-1.874-.307.011-2.058 7.596-7.059 15.965-10.697 26.375-11.466 1.445-.107 5.745.072 8.083.335m21.042 12.043c.57.224.584.565.042.992-.229.18-.417.457-.417.616 0 .47-1.225-.939-2.055-2.363-.098-.168.776.103 2.43.755m-27.742-.112c.3.3.241.493-.348 1.134-.294.321-.479.513-.41.425.209-.266.141-.425-.183-.425-.169 0-.439-.146-.601-.325-.487-.538 1.022-1.329 1.542-.809" fill="#08ed09"/><path d="M303.345 82.352c-11.519 1.023-25.206 6.99-38.762 16.9-23.016 16.827-41.169 41.678-50.918 69.706l-.71 2.042h-.651c-4.39 0-16.52-2.188-22.195-4.004-2.429-.777-1.553-.114-7.609-5.767-14.995-13.997-23.749-17.904-30.396-13.565-3.848 2.512-5.465 6.851-4.1 11.003 3.148 9.573 10.354 13.573 27.329 15.17 4.194.395 6.684.705 9.334 1.163 8.301 1.437 13.053 1.936 22.147 2.328 2.052.089 3.765.195 3.806.236s-1.538 3.738-3.509 8.214l-6.225 14.33c.097.097 4.556-.958 6.802-1.608 5.794-1.679 11.389-4.094 16.357-7.06 3.019-1.803 2.725-1.417 4.29-5.641l2.09-5.628c.466-1.251.818-1.953 1.019-2.032.168-.067 1.619-.464 3.223-.884s4.072-1.114 5.485-1.545l2.57-.783 1.121-1.512c2.499-3.368 7.075-11.053 6.766-11.362-.052-.052-.904.299-1.893.778-3.937 1.91-9.607 4.287-13.133 5.506l-1.618.577c-.229.094-.127-.351.521-2.274 6.493-19.255 21.048-40.11 39.347-56.377 24.548-21.821 44.963-27.181 40.042-10.513-4.446 15.061-23.336 36.424-45.792 51.787l-2.333 1.596-.395 1.642c-.95 3.947-2.874 8.104-5.716 12.35-.629.94-1.105 1.708-1.059 1.708.801 0 13.483-6.592 18.653-9.695 28.546-17.137 48.894-41.432 48.93-58.421.028-12.77-8.503-19.636-22.818-18.365M219.25 206.114c-7.502 5.073-16.285 9.195-23.917 11.224-2.6.691-1.993-.138-5.301 7.245-9.865 22.014-18.565 39.58-26.56 53.625-1.187 2.086-2.203 3.792-2.258 3.792s-1.007-.737-2.116-1.637c-19.59-15.916-35.596-25.062-52.716-30.123-15.53-4.59-31.859-5.23-43.715-1.714-40.613 12.046-47.552 67.449-11.141 88.949 10.137 5.986 21.203 8.688 35.586 8.691 30.484.005 56.864-12.825 80.185-38.999l2.854-3.127c.158-.063 10.969 9.77 21.01 19.11 21.403 19.909 35.713 30.188 51.756 37.177 23.58 10.273 48.991 7.132 76.275-9.428 12.045-7.311 31.546-22.692 40.894-32.256 16.061-16.431 9.689-20.45-12.73-8.029-5.684 3.149-13.458 8.069-16.939 10.721-28.191 21.47-54.333 29.403-78.834 23.921-14.776-3.307-31.488-12.54-48.998-27.071-3.066-2.544-23.541-20.475-25.155-22.03l-.487-.468 2.17-3.219c13.439-19.928 26.04-45.764 39.654-81.301l2.244-5.814c.251-.592.219-.578-1.761.761M82.167 259.838c22.304 1.374 42.301 9.187 64.833 25.329 3.381 2.422 8.333 6.201 8.333 6.358 0 .515-5.786 8.621-9.262 12.975-17.46 21.871-37.057 32.5-59.92 32.5-11.209 0-19.475-3.203-26.668-10.333-16.633-16.489-15.812-49.837 1.532-62.202 5.757-4.105 11.004-5.253 21.152-4.627" fill="#0404fb"/><path d="M254.583 43.818c-.183.075-1.495.186-2.916.249l-8.834.765c-.137.071-.737.181-1.333.243l-5.083.754c-.184.081-1.342.311-2.574.511l-2.5.504c-.143.077-1.085.296-2.093.488l-2.167.503c-.183.085-1.046.316-1.916.513l-1.75.48c-.092.066-.729.253-1.417.415s-1.565.435-1.949.609-.803.315-.929.315c-.266 0-1.753.457-2.124.653-.139.073-.685.259-1.214.413l-1.415.469c-.764.319-3.555 1.282-4.786 1.652-.641.192-1.241.406-1.333.475s-.729.292-1.417.497l-1.416.5c-.092.07-.729.295-1.417.5s-1.325.433-1.417.506-.654.265-1.25.428-1.344.434-1.664.602c-.696.365-1.261.385-1.874.065-.25-.13-1.113-.401-1.917-.601l-1.628-.488c-.092-.068-.842-.293-1.667-.499l-1.666-.503c-.092-.071-.88-.295-1.75-.497s-1.659-.427-1.75-.5-.88-.294-1.75-.491l-1.917-.514c-.369-.173-1.967-.571-3-.749-.367-.063-.742-.176-.833-.25s-.917-.294-1.834-.488l-2-.508c-.183-.085-1.196-.34-2.25-.567L168 48.99l-4.249-.83c-.733-.103-1.408-.245-1.5-.316-.162-.126-2.783-.545-4.834-.774-.55-.061-1.075-.168-1.167-.237-.149-.112-1.731-.294-7.333-.842-3.958-.388-7.43-.51-9.705-.343-4.007.296-8.971.927-9.295 1.183-.092.072-.505.184-.917.248-.998.154-2.668.562-3.083.752-.184.084-.934.314-1.667.512s-1.408.417-1.5.486-.692.297-1.333.506-1.315.482-1.496.606-.429.226-.552.226-.86.3-1.639.666l-1.484.667c-.269 0-5.784 3.185-7.732 4.466-7.509 4.936-15.679 12.492-21.764 20.128-1.158 1.454-2.286 2.719-3.277 3.677-1.697 1.641-3.784 3.91-4.723 5.135a51.49 51.49 0 0 1-.923 1.165c-.233.282-.533.674-.667.871a112.77 112.77 0 0 1-1.034 1.466c-.436.608-.908 1.309-1.051 1.557a55.9 55.9 0 0 1-.829 1.368c-.671 1.08-3.079 5.902-3.079 6.165 0 .1-.148.471-.328.825-.482.944-1.363 4.037-1.996 7.01-1.189 5.576-.755 13.397.916 16.5.123.23.375.754.559 1.167 1.597 3.574 4.613 6.833 9.676 10.456.392.28 1.408.88 2.673 1.576l1 .559c.954.544 1.355-.609.669-1.924-.072-.138-.295-1.338-.495-2.667s-.428-2.577-.506-2.772-.307-1.808-.506-3.583c-.365-3.254-.759-5.076-.571-2.645.172 2.223 1.76 11.971 2.181 13.385.183.615-3.789-1.688-6.428-3.728-6.346-4.904-9.272-10.48-9.466-18.04-.305-11.909 4.385-22.537 14.541-32.95 1.386-1.421 3.189-3.409 4.007-4.417 12.66-15.603 27.288-25.592 42.453-28.989 14.005-3.137 34.538-.247 65.869 9.27 2.966.901 3.387.99 3.833.814.276-.108 1.664-.598 3.085-1.089l8.834-3.06c13.223-4.586 18.904-6.087 28.75-7.593 34.716-5.314 60.028 2.998 60.863 19.985.455 9.259-6.488 15.245-23.188 19.989-8.268 2.349-12.854 4.115-16.664 6.416l-1.412.853-1.466-.426c-.807-.234-4.504-1.103-8.217-1.931-6.764-1.508-24.339-5.811-29.5-7.222l-7.75-2.159-19.378-5.451c-1.584-.444-2.988-.917-3.122-1.05-.212-.213-2.022-.704-3.75-1.019-.629-.114-3.292 1.318-6.75 3.63-21.718 14.521-39.825 43.944-44.071 71.615-3.982 25.947 2.819 41.041 21.914 48.636 10.5 4.177 27.65 5.428 41.47 3.027 2.174-.378 1.702.127 3.295-3.521l4.92-11.197 3.509-8.214c-.079-.079-6.539-.396-7.703-.379-2.043.031.732.328 3.966.426 1.998.06 3.565.153 3.481.207s-.211.286-.282.515-.373.942-.67 1.584l-1.579 3.496c0 .044-.262.64-.583 1.326s-.583 1.29-.583 1.344-.221.569-.49 1.144-.54 1.248-.601 1.493-.164.447-.227.447-.216.281-.339.625-.437 1.082-.7 1.641-.477 1.063-.477 1.121-.257.655-.572 1.328-.623 1.424-.685 1.67-.171.448-.243.448-.182.206-.245.458-.364.983-.668 1.625-.6 1.327-.658 1.522c-.089.3-.309.386-1.392.544l-2.953.45c-4.718.739-15.621.986-21.25.483-4.098-.367-11.928-1.731-12.848-2.238-.146-.081-.896-.314-1.667-.519s-1.477-.424-1.569-.488-.654-.294-1.25-.512c-2.579-.943-6.039-2.683-7.916-3.98l-1.417-.973c-4.227-2.861-9.624-9.486-10.826-13.289-.116-.366-.304-.816-.418-1s-.38-.933-.592-1.666-.446-1.413-.518-1.509c-.123-.164-.765-3.261-1.19-5.741-.241-1.405-.232-12.184.011-14.417a92.38 92.38 0 0 1 .354-2.833l.442-3.25c.148-1.146.366-2.421.484-2.834s.368-1.537.555-2.5c.416-2.141 1.166-5.297 1.367-5.75.081-.183.304-.933.495-1.666s.412-1.452.491-1.596.31-.857.513-1.583.425-1.396.494-1.488.297-.692.505-1.333.432-1.242.5-1.334.293-.691.502-1.333.429-1.204.489-1.25.247-.458.415-.917c.289-.788.627-1.556 1.797-4.083.809-1.746 2.705-5.576 2.806-5.667.092-.082 2.14-3.783 2.628-4.75.139-.275.302-.537.362-.583s.291-.42.513-.832.461-.825.529-.917a32.39 32.39 0 0 0 1.582-2.501c.141-.275.308-.538.371-.583s.501-.684.973-1.417.962-1.446 1.089-1.583a3.64 3.64 0 0 0 .444-.667c.117-.229.319-.529.448-.667.217-.229 1.968-2.565 2.547-3.397.136-.194.623-.807 1.084-1.362l1.421-1.74c3.411-4.272 11.328-11.876 15.096-14.501l2.57-1.824a25.52 25.52 0 0 1 1.5-1.005c.321-.19 1.034-.639 1.584-.998a22.08 22.08 0 0 1 1.75-1.026c.412-.205.787-.425.833-.488.598-.819 4.174-.711 5.108.154.17.157.759.419 1.309.582 1.765.523 4.455 1.272 6.083 1.694.871.226 1.733.483 1.917.571s1.046.345 1.916.571l3.417.93 3.417.929c.87.225 1.733.482 1.916.571s1.046.345 1.917.569c3.513.902 4.933 1.291 5.25 1.437.337.155 2.147.641 5.508 1.479 1.012.253 1.912.503 2 .557s.939.261 1.892.461 1.853.431 2 .513 1.054.308 2.017.502 1.825.412 1.916.483.842.259 1.667.419 1.8.389 2.167.509 1.407.376 2.312.569 1.767.414 1.916.491.947.271 1.772.431 1.8.39 2.166.511 1.342.342 2.167.491 1.762.354 2.083.456 1.596.4 2.834.661c4.633.977 5.275 1.126 6.322 1.462 1.859.597 2.259.609 3.002.095 1.514-1.05 5.683-3.089 7.509-3.674.504-.161.992-.351 1.083-.422s.73-.296 1.417-.501 1.325-.429 1.417-.498c.172-.129 2.06-.689 5.083-1.507 3.427-.927 4.758-1.317 5.333-1.562.321-.136 1.034-.372 1.584-.524s1.083-.342 1.184-.423.596-.289 1.099-.462 1.056-.392 1.231-.489 1.135-.561 2.133-1.033 1.898-.929 2-1.016.781-.53 1.508-.983 1.364-.887 1.416-.965.23-.217.395-.307c.516-.281 2.802-2.596 3.509-3.554 4.187-5.668 3.607-13.627-1.419-19.451-.955-1.107-3.825-3.55-4.694-3.994-.291-.15-.567-.327-.612-.394-.138-.202-4.53-2.433-5.25-2.666-.367-.118-.817-.311-1-.427s-.784-.339-1.334-.495-1.075-.343-1.166-.416-.805-.289-1.584-.481-1.529-.413-1.668-.491-1.188-.308-2.333-.512-2.232-.436-2.415-.515c-1.578-.676-19.02-1.542-20.334-1.01m-7.416 11.007c-1.055.05 1.833.092 6.416.092s7.621-.048 6.75-.107c-1.873-.126-10.431-.116-13.166.015m-5.5.342c-1.016.102-1.031.11-.25.121.458.007 1.47-.044 2.25-.112l1.416-.124-1.166.003a27.62 27.62 0 0 0-2.25.112m21.416.006c.55.068 1.3.122 1.667.119.572-.005.537-.024-.25-.132-.504-.07-1.254-.123-1.667-.119-.685.007-.663.019.25.132m-25.166.345c-2.281.276-3.204.44-2.584.46.715.023 5.027-.449 5.141-.563s-1.183-.064-2.557.103m27.615-.097c.122.122 2.958.577 3.468.557.229-.01-.258-.155-1.083-.325-1.467-.3-2.56-.407-2.385-.232m-32.615.746c-.562.1-.588.121-.167.13.275.007.838-.048 1.25-.122.673-.12.69-.133.167-.13a8.72 8.72 0 0 0-1.25.122m37.416.081l2.258.554c1.477.348 5.229 1.509 5.492 1.7.092.067.467.214.834.327.663.205 5.424 2.497 5.583 2.688.046.055.271.195.5.312 3.027 1.544 5.44 5.045 4.845 7.031-.328 1.094-2.504 2.837-4.428 3.546-.459.169-.918.374-1.022.454-.228.178-3.692.942-5.312 1.172-1.431.202-8.97.065-9.666-.177-.275-.095-1.883-.335-3.574-.532s-3.227-.42-3.416-.495-1.206-.261-2.26-.412-2.255-.349-2.667-.441-1.8-.353-3.083-.58-2.446-.459-2.584-.516c-.244-.102-2.538-.588-6.916-1.464-1.192-.239-2.317-.503-2.5-.587s-1.196-.309-2.25-.5-2.03-.393-2.167-.448-1.225-.309-2.417-.565L232 66.534l-2.333-.515-3.167-.707-4.333-.965c-1.146-.25-2.196-.502-2.334-.559s-1.15-.293-2.25-.523c-3.573-.746-6.324-1.381-6.75-1.558-.494-.206-.46-.223 1.417-.711.733-.191 1.483-.416 1.667-.5.697-.32 6.836-1.854 9.666-2.415 1.1-.219 2.225-.472 2.5-.564s1.625-.324 3-.518c2.351-.331 3.639-.626 2.86-.654-2.234-.083-20.455 4.231-22.401 5.303-.114.063 1.536.512 3.667.998 52.251 11.914 62.03 13.402 70.541 10.737 7.792-2.44 8.523-6.973 1.838-11.402-3.747-2.483-11.453-5.435-15.338-5.877l-.833-.095.916.239m-143.967 7.451c-3.044.278-1.997.361 1.641.13 3.106-.197 5.269-.184 11.993.074 1.614.062 1.746.05.833-.075-1.668-.23-12.324-.324-14.467-.129m-2.824.416c.16.042.423.042.583 0s.029-.076-.292-.076-.452.034-.291.076m20.125.145l3.5.475c2.168.315 3.459.316 1.583 0-1.84-.309-5.618-.739-6.284-.715-.302.011.238.119 1.201.24m-23.802.409C95.282 69.917 79.761 91.222 81.8 116.917c.124 1.56.15 1.075.172-3.25.024-4.509.107-6.005.455-8.167l.421-2.75c.179-1.192.395-2.317.479-2.5s.313-1.046.51-1.917.415-1.658.483-1.75.296-.766.507-1.5.438-1.408.505-1.5.282-.596.475-1.121.425-1.088.515-1.25.533-1.045.985-1.962 1.129-2.154 1.505-2.75a49.12 49.12 0 0 0 .952-1.564c1.476-2.648 6.954-8.565 10.153-10.966.275-.206.537-.423.583-.481s.383-.301.75-.541 1.117-.745 1.667-1.125 1.225-.806 1.5-.947.537-.313.583-.382c.099-.149 4.667-2.494 4.858-2.494.073 0 .558-.195 1.079-.433s1.33-.546 1.797-.684.924-.307 1.016-.376.804-.291 1.583-.492 1.612-.441 1.85-.534 1.401-.356 2.584-.587l2.816-.553.667-.133-.583-.006c-.321-.003-1.582.207-2.802.467m31.385.587l4.083.718 4.167.757c1.533.308 2.432.317 1.167.01-1.74-.421-9.585-1.748-10.167-1.719-.229.011.108.116.75.234m11.333 2.02c.55.133 1.563.356 2.25.497 1.253.255 1.567.325 5.584 1.244l3.791.851c.893.195 1.606.37 1.583.387s-1.091.576-2.374 1.24-2.452 1.312-2.597 1.44-.332.233-.416.234-.754.372-1.487.824l-2.233 1.373-1.17.717c-.228.141-1.18.787-3.073 2.084-.2.137-.805.587-1.343 1l-1.413 1.074c-3.168 2.363-7.871 7.072-10.268 10.282-.367.491-2.017 2.282-3.667 3.98-3.637 3.743-4.267 4.422-6.189 6.664-2.004 2.336-3.874 4.667-5.082 6.333l-.901 1.206c-.131.16-.423.572-.649.917s-.79 1.172-1.253 1.838-.843 1.276-.843 1.355-.106.231-.236.339-.556.736-.946 1.396l-1.969 3.247c-.628.97-3.737 7.172-4.328 8.634-.292.725-.606 1.452-.698 1.615-.16.288-.542 1.255-1.41 3.578-.231.619-.491 1.275-.578 1.458-.146.309-.954 2.727-1.84 5.5-.531 1.666-1.131 3.893-1.592 5.917-.22.962-.476 1.983-.57 2.267-.174.53-.832 4.13-1.248 6.831-2.346 15.224-.156 31.537 5.271 39.261.171.243.311.485.311.537s.356.629.792 1.284c1.244 1.872 1.604 2.391 1.903 2.743.153.18.673.814 1.156 1.41 2.368 2.925 7.329 7.322 10.436 9.25 3.525 2.188 5.373 3.187 8.463 4.576.642.289 1.3.597 1.462.687s.725.314 1.25.5 1.092.414 1.259.506c.385.211 2.83 1.046 4.362 1.489.642.185 1.447.446 1.788.578s1.167.361 1.834.506 1.478.365 1.804.489 1.301.35 2.167.505 1.949.383 2.407.509 1.996.382 3.417.568l3.583.514c1.828.321 13.543.387 15.834.091 3.325-.431 6.471-.928 6.985-1.103.578-.198.679-.136.453.277-.092.17-.481 1.021-.864 1.892l-1.156 2.583-1.92 4.25-1.162 2.583-.801 1.75-.952 2.084-.957 2.083-1.164 2.5-1.13 2.417-3.097 6.472c-.267.535-.485 1.079-.485 1.209s-.067.235-.148.235-.318.432-.526.959-.48 1.076-.603 1.221-.223.313-.223.374-.563 1.255-1.25 2.654-1.249 2.636-1.25 2.751-.067.208-.148.208-.32.431-.531.958-.431.996-.487 1.042-.53.937-1.051 1.981-1.008 1.981-1.083 2.083-.28.523-.456.936-.369.787-.431.833-.313.496-.556 1-.55 1.105-.681 1.334a477.16 477.16 0 0 0-2.033 3.72l-2.325 4.25-.852 1.53-1.035 1.833-1.021 1.833c-.169.321-.428.749-.576.951l-.269.367-.509-.367c-.279-.202-.681-.517-.893-.701-.532-.461-3.049-2.467-4.964-3.957l-1-.797c-.284-.231-1.175-.906-1.981-1.5l-2.952-2.204c-.818-.619-1.561-1.125-1.652-1.125s-.224-.099-.298-.22-.546-.5-1.05-.843l-2.083-1.451c-.642-.456-1.804-1.254-2.583-1.774l-1.584-1.085c-.091-.077-.766-.509-1.5-.96s-1.416-.891-1.518-.978-.477-.319-.833-.515a62.78 62.78 0 0 1-1.649-.956c-1.237-.743-1.866-1.096-4.083-2.294l-2-1.088c-.138-.079-1.038-.53-2-1.003l-2-1.013c-.138-.085-.414-.225-.615-.312a107.27 107.27 0 0 1-1.417-.645c-2.465-1.138-5.533-2.436-6.385-2.7-.366-.113-.747-.27-.845-.347-.186-.147-2.319-.905-4.321-1.536-.642-.202-1.242-.415-1.334-.474-.179-.114-2.415-.766-4.833-1.409-.825-.22-1.838-.507-2.25-.639s-1.388-.358-2.167-.504-1.791-.37-2.25-.499-1.808-.356-3-.504-2.432-.339-2.757-.424c-3.245-.843-21.149-.908-22.488-.08-.079.049-1.068.241-2.199.427s-2.356.443-2.722.573a24.51 24.51 0 0 1-1.75.503c-.596.147-1.496.423-2 .612-5.833 2.196-8.565 3.628-13.834 7.252-2.505 1.723-7.019 6.169-9.043 8.906a43.3 43.3 0 0 1-.687.897c-.595.753-1.936 2.738-1.936 2.863 0 .061-.102.229-.226.374s-.405.6-.625 1.013-.44.787-.49.833c-.157.146-1.826 3.638-1.826 3.823 0 .097-.063.177-.14.177s-.233.319-.346.708a11.81 11.81 0 0 1-.513 1.375c-.363.787-.834 2.177-.835 2.464-.001.112-.107.405-.236.652s-.393 1.109-.587 1.917-.421 1.617-.504 1.801c-.142.31-.428 1.888-.848 4.666-.504 3.34-.636 12.573-.188 13.14.084.106.206.681.271 1.277.17 1.576.573 3.864.748 4.25.083.183.315 1.041.516 1.906s.428 1.69.506 1.834.308.823.513 1.51.423 1.287.483 1.333.246.495.412.997.478 1.29.696 1.75c.604 1.276 1.764 3.493 1.877 3.587.056.045.24.4.411.786s.45.83.62.985.311.343.311.42c0 .154 1.34 2.148 1.895 2.821a26.06 26.06 0 0 1 .771.996c3.157 4.305 9.959 9.894 15.417 12.668.55.279 1.112.578 1.25.663.222.137.943.474 4.083 1.905.459.209 1.134.474 1.5.589s.742.267.834.338.691.286 1.333.479 1.317.424 1.5.513.971.317 1.75.509 1.717.45 2.083.572 1.454.347 2.417.5 1.9.342 2.083.42c2.961 1.256 19.328 1.435 28.917.317.962-.112 1.825-.258 1.917-.324s.579-.17 1.083-.232c1.463-.178 3.679-.577 4.583-.825.459-.125 1.434-.354 2.167-.508s1.483-.351 1.667-.437 1.008-.336 1.833-.555c2.25-.599 4.479-1.279 4.667-1.425.091-.071.729-.297 1.416-.502s1.334-.441 1.437-.525.591-.271 1.084-.415 1.046-.354 1.229-.466.709-.34 1.167-.507 1.067-.444 1.353-.615.602-.312.703-.312c.304 0 6.627-3.181 8.277-4.164l1.584-.922a56.27 56.27 0 0 0 2.5-1.501l3.25-2.115a17.25 17.25 0 0 1 .833-.579 67.71 67.71 0 0 0 1.392-.956l1.2-.846c1.553-1.091 7.495-5.894 8.158-6.595.137-.146.887-.821 1.667-1.501 1.722-1.503 9-8.762 10.5-10.473l1.333-1.503c.137-.148.655-.735 1.15-1.307 1.122-1.294.829-1.368 3.229.821l3.443 3.125 2.024 1.849c.34.321 1.242 1.146 2.006 1.834l3.914 3.579 1.818 1.671 2.249 2.083 2.432 2.263 4.494 4.166 3.563 3.238c.487.412 1.083.945 1.324 1.184s1.6 1.424 3.021 2.633l3.105 2.649a38.22 38.22 0 0 0 1 .829 56.08 56.08 0 0 1 1.061.87 248.1 248.1 0 0 0 5.906 4.668c.785.596 1.671 1.289 1.969 1.54s.673.5.834.553.291.159.291.235.244.294.542.483a35.2 35.2 0 0 1 1.458 1.013c1.866 1.363 3.327 2.343 3.495 2.343.094 0 .172.073.172.163s.281.317.625.506.925.562 1.292.831.76.491.875.494.208.069.208.146.356.345.792.595A81.19 81.19 0 0 1 228 352.92l1.667.999 1.416.821c1.658.961 3.459 1.935 4.917 2.661l1.833.939c.138.083.925.461 1.75.841l2.514 1.171c.557.265 1.061.481 1.12.481s.587.22 1.172.487 1.371.57 1.747.672.723.248.772.327.708.31 1.465.513 1.453.431 1.546.507.881.304 1.75.507 1.658.429 1.753.501 1.069.294 2.166.492 2.145.424 2.329.505c2.157.947 14.749 1.472 20.166.84 4.314-.503 5.865-.716 6.167-.845.183-.079 1.271-.309 2.417-.511s2.158-.426 2.25-.496.429-.177.75-.238c1.594-.306 3-.667 3-.773 0-.064.281-.167.625-.227.708-.125 2.125-.541 2.625-.771.183-.085.858-.313 1.5-.507s1.204-.403 1.25-.464.533-.247 1.083-.414 1.15-.397 1.333-.511.839-.376 1.457-.581 1.162-.436 1.211-.513.367-.233.71-.345 1.243-.492 2.001-.845 1.451-.643 1.541-.643.164-.065.164-.144.43-.308.955-.509 1.069-.46 1.208-.575.591-.353 1.003-.528.788-.366.834-.424.42-.266.833-.46 1.2-.619 1.75-.941 1.375-.784 1.833-1.025.871-.493.917-.56.413-.29.815-.494.815-.444.917-.535c.221-.196 1.22-.794 2.31-1.383.435-.235.791-.501.791-.591s.079-.164.174-.164 1.052-.589 2.125-1.307l3.785-2.561a120.9 120.9 0 0 1 3.495-2.536c.273-.176.573-.384.667-.463a57.92 57.92 0 0 1 1.171-.884l1.417-1.072 1.763-1.379 4.327-3.437c.187-.153.824-.65 1.416-1.104a81.42 81.42 0 0 0 2.086-1.667l1.74-1.424c8.291-6.626 16.398-14.518 19.874-19.347 1.285-1.786 1.512-2.149 2.415-3.869.351-.669.619-2.426.481-3.158-.515-2.744-5.235-2.414-12.852.899-1.747.759-3.635 1.635-3.917 1.816a5.77 5.77 0 0 1-.583.312c-1.238.563-1.528.703-1.75.842-.138.086-.963.537-1.834 1.002s-1.958 1.068-2.416 1.342-1.209.694-1.667.935-.871.492-.917.56-.458.322-.916.567a26.6 26.6 0 0 0-1.584.927l-3 1.875c-1.881 1.159-5.39 3.483-6.232 4.128l-1.916 1.449-1.268.952c-1.31 1.004-3.298 2.449-3.567 2.593-.178.095-.424.27-.545.389s-.522.396-.888.617-.705.449-.75.506-1.021.717-2.167 1.466l-2.25 1.491c-.092.072-.804.512-1.583.979l-3.334 2.06c-.046.046-.383.242-.75.436l-2.916 1.588c-2.55 1.401-8.759 4.477-9.038 4.477-.066 0-.591.214-1.166.476s-1.346.571-1.713.688-.742.268-.833.335-.58.255-1.084.415-1.141.391-1.416.511c-.686.3-2.051.741-2.298.742-.111.001-.398.104-.638.229s-1.102.399-1.917.61-1.556.437-1.647.503-.955.291-1.917.5c-1.56.337-2.461.657-1.85.657.354 0 4.929-1.265 7.267-2.01 12.387-3.945 25.325-11.073 39-21.488 11.406-8.688 29.802-18.006 35.534-18.001 10.436.01-7.021 19.543-36.368 40.693-31.031 22.364-60.169 27.844-86.666 16.3-16.043-6.989-30.353-17.268-51.756-37.177l-21.01-19.11c-.059.024-1.343 1.431-2.854 3.127-21.224 23.821-44.921 36.534-72.226 38.749-33.409 2.709-58.556-11.506-65.477-37.012-7.112-26.21 7.44-52.775 33.073-60.378 10.215-3.03 25.018-2.947 38.192.215 19.118 4.587 36.743 14.157 58.239 31.622 1.109.9 2.061 1.637 2.116 1.637s1.071-1.706 2.258-3.792c7.989-14.035 16.625-31.471 26.562-53.625l2.996-6.528c.111-.139-.096-.13-.729.033-18.191 4.681-45.701-1.157-60.366-12.811-14.075-11.186-19.309-27.131-16.42-50.024 2.835-22.454 12.882-42.554 29.993-60.003 1.798-1.833 3.732-3.948 4.298-4.7 5.168-6.861 14.456-14.092 24.67-19.206 1.133-.567 2.033-1.057 2-1.089-.114-.11-6.709-1.636-11.505-2.661-2.704-.578-4.393-.803-2.388-.318m140.25 14.823c-1.465.125-4.588.592-4.916.735-.184.08-.968.268-1.742.418s-1.825.406-2.334.571-1.374.425-1.924.58-1.15.349-1.334.432-.858.332-1.5.553c-1.786.615-3.445 1.263-3.649 1.425-.101.08-.371.202-.601.27-.936.28-6.597 3.066-8.416 4.143l-1.75 1.025c-.413.237-1.163.686-1.667.996l-1.708 1.018c-.436.25-.792.518-.792.595s-.078.14-.172.14c-.143 0-2.344 1.419-2.911 1.878-.092.074-.998.713-2.014 1.42s-1.97 1.398-2.121 1.535-.917.738-1.703 1.334c-1.949 1.476-6.309 5.048-7.329 6.004l-1.916 1.763c-2.434 2.208-7.38 7.275-9.811 10.051-1.85 2.113-3.47 4.035-4.313 5.119l-1.891 2.396c-.835 1.054-1.591 2.052-1.68 2.218s-.606.894-1.15 1.617-.989 1.366-.989 1.43-.1.198-.222.3c-.306.255-3.778 5.529-3.778 5.738 0 .093-.067.194-.149.225-.147.054-.759.997-1.604 2.472a82.17 82.17 0 0 1-.991 1.667c-.842 1.374-2.704 4.72-3.572 6.416-.422.825-.807 1.538-.855 1.584-.093.088-1.102 2.154-1.975 4.041l-1.008 2.167c-.268.573-.797 1.792-1.175 2.708s-.758 1.796-.845 1.954-.317.758-.514 1.334-.411 1.121-.479 1.212-.292.692-.5 1.334-.435 1.241-.506 1.333-.296.729-.501 1.417-.429 1.325-.499 1.416-.213.486-.317.875c-.18.673-.221.709-.808.708-.787-.001-5.494-.46-6.702-.654l-3.917-.59c-1.65-.244-3.15-.51-3.333-.591s-1.158-.306-2.167-.498-1.983-.418-2.166-.502-.821-.272-1.417-.418c-1.95-.478-4.516-1.456-4.985-1.899l-2.437-2.264-3.156-2.934c-1.361-1.278-2.85-2.629-3.936-3.57l-1.711-1.486c-.52-.452-1.119-.94-1.331-1.083s-.492-.356-.623-.473-.688-.548-1.238-.958l-1.239-.948c-.5-.423-2.666-1.798-2.835-1.798-.097 0-.176-.069-.176-.154 0-.282-5.241-3.038-6.374-3.352-4.269-1.183-7.134-1.024-9.931.553-1.316.742-3.274 2.528-3.694 3.37-.138.275-.302.539-.365.586-.184.139-.802 1.664-.802 1.977 0 .158-.094.38-.208.495-.272.271-.285 3.65-.016 4.208.106.22.315.867.466 1.438.34 1.294 2.056 4.702 2.683 5.328.133.133.241.31.241.393 0 .274 2.395 2.57 3.5 3.356 2.082 1.48 5.664 3.138 8.19 3.789.675.175 1.415.388 1.644.476s1.279.287 2.333.445 2.093.357 2.309.444 2.016.302 4 .479l4.441.396c1.485.133 7.579 1.018 9.333 1.356.734.141 2.084.365 3 .498l2.667.409c1.389.231 7.436.683 8.75.654.873-.02.728-.051-.75-.161-3.985-.297-8.975-.864-11.75-1.335-7.146-1.214-7.877-1.314-13.167-1.811-16.972-1.596-24.181-5.597-27.329-15.17-1.365-4.152.252-8.491 4.1-11.003 6.647-4.339 15.401-.432 30.396 13.565 6.056 5.653 5.18 4.99 7.609 5.767 5.675 1.816 17.805 4.004 22.195 4.004h.651l.71-2.042c9.749-28.028 27.902-52.879 50.918-69.706 31.884-23.309 61.631-22.601 61.58 1.465-.036 16.989-20.384 41.284-48.93 58.421-5.289 3.175-17.814 9.674-18.693 9.699-.068.002-.348.321-.622.708-1.827 2.585-5.834 6.877-11.013 11.795-1.107 1.05-3.386 3.395-5.065 5.211-5.676 6.138-12.291 12.091-18.696 16.826l-1.939 1.433-.461 1.22c-14.452 38.311-27.637 65.688-41.631 86.438l-2.17 3.219.487.468c1.614 1.555 22.089 19.486 25.155 22.03 17.526 14.545 34.196 23.751 49.033 27.08 2.581.579 3.367.692 2.882.416-.138-.079-.812-.234-1.5-.346-2.405-.389-7.948-1.91-9.417-2.582-.275-.126-.987-.394-1.583-.595s-1.158-.419-1.25-.484-.542-.251-1-.415a24.35 24.35 0 0 1-1.5-.601c-2.685-1.219-4.095-1.825-4.244-1.825-.095 0-.173-.066-.173-.147s-.431-.32-.958-.531-.996-.427-1.042-.48-.495-.281-1-.508-.954-.461-1-.518-.383-.252-.75-.431c-.971-.476-4.124-2.239-4.416-2.471-.138-.108-.588-.377-1-.597s-.788-.448-.834-.506-.369-.265-.718-.461-.724-.43-.833-.521-1.241-.858-2.515-1.705l-2.691-1.79a130.69 130.69 0 0 1-1.995-1.417l-1.976-1.414c-.461-.321-2.165-1.62-3.665-2.792l-1.107-.865-4.897-3.929c-.102-.092-.824-.707-1.603-1.367l-1.916-1.63-1.141-.967c-.352-.295-.84-.721-1.083-.946a478.89 478.89 0 0 0-6.1-5.351c-.269-.223-.644-.562-.833-.754s-.906-.823-1.593-1.405-1.628-1.399-2.089-1.818l-1.75-1.567-1.411-1.269c-.275-.255-1.064-.943-1.754-1.528l-2-1.754-1.323-1.189-.577-.499.494-.708.91-1.337 1.283-1.937 1.215-1.807c.839-1.206 3.332-5.153 3.658-5.792.128-.252.296-.458.372-.458s.138-.068.138-.15.554-1.077 1.231-2.209c2.431-4.065 6.269-10.964 6.269-11.269 0-.098.063-.203.139-.233s.545-.881 1.041-1.889.946-1.871.999-1.917c.181-.159 3.825-7.585 3.823-7.792-.001-.114.068-.208.154-.208s.208-.169.273-.375.638-1.463 1.275-2.792l2.716-5.75 1.1-2.357c.264-.563.48-1.144.48-1.291s.065-.268.144-.268.277-.357.44-.792c.3-.805.634-1.57 1.563-3.584.286-.619.52-1.17.52-1.226s.174-.448.387-.874a17.44 17.44 0 0 0 .707-1.691c.176-.504.366-.954.422-1s.268-.532.472-1.081.431-1.074.504-1.167.308-.656.52-1.252.432-1.121.487-1.167.239-.458.407-.916a32.86 32.86 0 0 1 .675-1.667c.204-.458.466-1.133.583-1.5s.272-.743.345-.835.298-.618.501-1.167.42-1.073.485-1.165.292-.654.505-1.25.439-1.158.502-1.25.293-.691.511-1.333.444-1.204.501-1.25.271-.571.476-1.167.43-1.158.502-1.25.3-.691.508-1.333.438-1.243.511-1.337.302-.693.51-1.333.426-1.201.486-1.247.281-.608.49-1.25.436-1.241.503-1.333.291-.682.498-1.312.479-1.342.605-1.583.229-.519.229-.619.433-.491.96-.872 1.07-.79 1.208-.911.475-.36.75-.533.585-.394.69-.492.584-.478 1.067-.845c5.536-4.206 12.504-10.808 19.179-18.174.935-1.032 2.195-2.24 3.46-3.321 1.832-1.564 7.276-7.373 8.596-9.172.269-.366.569-.741.667-.833s.314-.377.478-.634.426-.509.581-.561c1.029-.345 8.828-4.068 9.365-4.471.138-.103.588-.331 1-.506s.788-.362.834-.415 1.283-.756 2.75-1.561l3.583-2.025 1.667-.99c1.474-.845 2.417-1.457 2.472-1.604.03-.082.131-.149.222-.149.245 0 5.806-3.7 5.806-3.862 0-.076.076-.138.169-.138.145 0 1.439-.879 2.581-1.752a103.38 103.38 0 0 1 1.416-1.038c.596-.431 1.121-.826 1.167-.878s.308-.261.583-.466l.834-.622c.316-.237 1.963-1.57 3.57-2.889a38.49 38.49 0 0 0 1.193-1.022l.93-.823c3.191-2.739 8.959-8.369 10.973-10.711l1.667-1.898c.772-.837 2.973-3.573 4.051-5.035.155-.21.471-.623.701-.916s.793-1.095 1.25-1.781l.96-1.417c.727-.959 3.621-6.062 3.621-6.386 0-.097.098-.275.218-.396s.399-.67.621-1.22.489-1.15.596-1.334.325-.746.485-1.25.352-.994.426-1.089.294-.77.487-1.5.418-1.477.498-1.661c.805-1.847.811-11.705.007-12.833-.066-.092-.218-.542-.339-1-2.055-7.801-10.823-12.146-22.499-11.151m3 8.23c-12.153 2.622-32.996 18.447-48.081 36.504-8.265 9.894-15.918 21.958-20.248 31.917-1.962 4.515-3.994 10.35-3.539 10.164a59.19 59.19 0 0 1 1.618-.577c3.533-1.222 9.134-3.566 12.934-5.414 1.044-.508 1.978-.923 2.076-.923.385 0 3.03-6.33 4.485-10.73 1.598-4.836 2.643-8.992 3.67-14.594.669-3.651.626-3.531 1.077-2.991 2.748 3.291 5.3 7.926 6.045 10.982.489 2.002.395 6.846-.16 8.293-.225.586 7.873-5.205 12.878-9.21 19.058-15.25 35.242-36.443 35.826-46.916l.07-1.251-.147 1.146c-.081.63-.221 1.342-.311 1.583s-.329 1.076-.529 1.855-.423 1.491-.494 1.583-.185.354-.253.583c-.237.795-2.544 5.659-2.767 5.834-.058.045-.304.458-.546.916-.776 1.47-.978 1.805-2.202 3.646l-.735 1.111a157.76 157.76 0 0 1-2.531 3.577 219.71 219.71 0 0 1-1.171 1.503l-1.486 1.917c-.956 1.268-5.34 6.279-7.229 8.263-1.975 2.075-5.15 5.238-6.593 6.567l-1.983 1.833c-.448.424-4.221 3.725-4.86 4.252l-1.167.943-1.98 1.575c-1.33 1.06-4.742 3.635-5.667 4.276L270 149.841c-1.826 1.296-3.694 2.524-3.742 2.46-.02-.028.02-.651.091-1.384.277-2.902.083-6.185-.435-7.334a16.18 16.18 0 0 1-.472-1.25c-.316-.957-1.437-3.232-1.629-3.305-.08-.031-.146-.143-.147-.25 0-.309-2.213-3.577-3.377-4.986-1.065-1.291-1.154-1.189-1.593 1.808-.209 1.43-.446 2.724-.527 2.875s-.312 1.212-.514 2.357-.429 2.195-.502 2.333-.298 1.002-.499 1.918-.419 1.742-.483 1.834-.288.841-.498 1.666-.44 1.575-.51 1.667-.281.692-.47 1.333c-.436 1.482-1.279 3.8-1.701 4.678-.179.373-.325.736-.325.808 0 .166-.744 1.822-1.5 3.342l-.584 1.172-1.693.834c-2.038 1.003-3.18 1.532-5.057 2.34l-2.083.905c-.367.163-1.417.579-2.333.926l-2.853 1.09c-.652.253-1.451.534-1.775.623l-.588.163.309-1.024c.604-1.995 2.093-5.994 2.554-6.857.147-.275.268-.565.268-.645.003-.453 2.787-6.226 4.47-9.271l1.619-2.933c.206-.375.571-.992.81-1.371s.436-.766.436-.86.062-.17.138-.17.243-.206.371-.458.515-.885.861-1.408.63-1.016.63-1.099.15-.285.333-.451.333-.363.333-.438.394-.706.875-1.403l1.042-1.535c.222-.358 1.95-2.806 2.5-3.541l1.101-1.5c.871-1.202 1.292-1.758 1.899-2.509l1.167-1.484c.366-.476.854-1.083 1.083-1.35s.582-.692.785-.946c2.922-3.66 8.965-10.089 12.73-13.544l2.973-2.741c1.178-1.091 7.572-6.445 8.762-7.337l1.583-1.203c.408-.323 1.714-1.281 2.232-1.638a52.09 52.09 0 0 0 1-.71c.285-.208.856-.602 1.268-.875l1-.666a100.88 100.88 0 0 1 1.334-.854l1.5-.967a17.6 17.6 0 0 1 1.166-.687c.413-.223.833-.483.934-.578s.514-.317.917-.495.77-.367.816-.42c.089-.104 2.307-1.194 3.856-1.895 2.45-1.11 5.854-2.141 7.977-2.417 1.068-.138 1.072-.14.25-.15-.458-.006-1.471.127-2.25.295m4.419-.178c2.207.361 3.656 1.732 4.066 3.849.091.467.152.589.164.322.089-2.092-1.86-4.096-4.13-4.246l-.935-.062.835.137m-228.2 29.599c.001.55.032.755.069.455s.036-.749-.002-1-.068-.005-.067.545m158.365 55.86a138.15 138.15 0 0 1-5.5 1.575c-4.01 1.055-3.788.951-4.11 1.919-.695 2.09-3.815 10.289-4.007 10.531-.396.499 4.147-2.843 5.95-4.377 2.415-2.054 4.851-4.409 6.649-6.425 1.852-2.077 3.509-4.015 3.406-3.982-.03.009-1.105.351-2.388.759m1.3.125c-.559.984-6.528 7.125-8.553 8.799-2.896 2.392-4.026 3.272-4.945 3.851l-.699.44.169-.538c.092-.295.263-.724.379-.954s.347-.866.512-1.416.362-1.081.439-1.18.3-.699.495-1.333.411-1.229.481-1.321.296-.682.503-1.311.479-1.342.605-1.584.229-.53.229-.643.17-.243.376-.29c.371-.083 2.148-.529 5.353-1.342.904-.229 1.729-.471 1.833-.536s.789-.282 1.523-.48l1.383-.379c.027-.01-.01.088-.083.217m28.974 19.099c-1.884 1.848-4.333 4.659-5.229 5.999-.153.23-.657.962-1.12 1.628s-.842 1.26-.842 1.32-.101.228-.225.373-.405.6-.625 1.013-.443.787-.496.833-.49.908-.97 1.917l-1.091 2.25c-.119.229-.348.829-.51 1.333s-.354.993-.427 1.087-.293.807-.488 1.584-.42 1.562-.502 1.746c-.967 2.169-1.778 15.186-1.007 16.165.072.093.183.731.245 1.418.159 1.749.582 4.364.759 4.688.081.149.198.561.259.916.32 1.845.953 3.563 1.314 3.563.472 0 4.865-4.612 6.181-6.49.275-.392.612-.838.75-.991s.644-.877 1.125-1.607l1.009-1.496c.073-.091.316-.504.541-.916s.454-.788.511-.834.253-.383.436-.75l.684-1.333c.76-1.445 1.345-2.744 1.548-3.438.117-.401.267-.767.333-.814s.294-.684.505-1.417.438-1.37.503-1.418.283-.948.485-2 .429-2.063.504-2.246c.706-1.726.704-14.182-.003-15.834-.078-.183-.231-.933-.339-1.666-.288-1.964-.561-3.25-.688-3.25-.061 0-.157-.282-.212-.625-.454-2.817-.707-2.878-2.918-.708m28.43-1.042c-.137.343-.376 1.187-.532 1.875s-.359 1.437-.452 1.666c-.19.472-.365 1.439-.736 4.084l-.399 2.75c-.184 1.197-.186 8.841-.002 9.916l.391 2.451c.328 2.134.615 3.511.774 3.716.071.092.214.569.318 1.061s.375 1.36.603 1.929.414 1.096.414 1.169c0 .256 2.208 4.855 2.684 5.591.148.229.595.979.994 1.667s1.252 1.956 1.898 2.819l1.424 1.944c1.069 1.604 5.619 6.237 6.126 6.237.233 0 .369-.269.608-1.209.169-.664.363-1.283.433-1.375s.288-1.029.486-2.083.429-2.179.514-2.5c.438-1.652.58-3.838.574-8.833-.007-5.807-.024-5.966-1.188-11.084-.146-.641-.318-1.241-.383-1.333s-.218-.542-.34-1c-.319-1.201-1.589-4.205-2.64-6.246-.668-1.296-2.438-4.239-2.927-4.865-.19-.245-.646-.876-1.013-1.402-1.839-2.64-6.466-7.57-7.104-7.57-.164 0-.378.254-.525.625m3.683 2.689c11.524 12.642 15.152 28.356 10.269 44.477-.52 1.714-.387 1.739-2.621-.5-12.228-12.253-16.475-29.31-11.373-45.68l.45-1.442.983.855c.541.47 1.572 1.501 2.292 2.29m-29.664-1.773c2.337 7.958 2.67 17.558.858 24.741-1.901 7.537-7.279 16.507-13.146 21.926-1.321 1.22-1.221 1.265-1.824-.833-2.108-7.336-2.446-16.898-.836-23.696 1.777-7.507 6.062-15.044 11.971-21.056 2.631-2.677 2.52-2.637 2.977-1.082m-32.906 10.917c-.098.16-.311.817-.473 1.458s-.361 1.317-.442 1.5c-.156.355-.542 2.185-.809 3.834l-.322 1.851c-.557 2.958-.556 11.901.003 14.149.191.77.244 1.026.587 2.833.266 1.401 1.333 4.888 1.578 5.158.079.087.144.255.144.372s.262.773.583 1.459.584 1.292.584 1.349.425.867.944 1.8l1.176 2.112c.227.411 1.149 1.835 1.793 2.77 2.403 3.492 7.204 8.73 8 8.73.236 0 .582-.932.928-2.5.111-.504.261-.992.332-1.083s.289-1.18.483-2.417.426-2.513.513-2.833c.511-1.878.658-9.081.25-12.25-.327-2.541-1.033-6.214-1.249-6.5-.069-.092-.166-.354-.215-.584-.196-.916-.642-2.407-.771-2.573-.075-.097-.217-.416-.315-.709-.535-1.593-2.758-5.939-4-7.821-2.359-3.576-4.535-6.232-7.15-8.728-1.896-1.81-1.888-1.805-2.152-1.377m90.988.157c-2.82 2.557-7.055 7.375-7.055 8.025 0 .091-.07.19-.155.221-.185.066-1.845 2.583-1.845 2.797 0 .081-.07.172-.155.203-.224.08-2.845 5.298-2.845 5.664 0 .169-.061.308-.134.308s-.308.544-.52 1.208-.443 1.284-.514 1.375-.294.88-.494 1.75-.435 1.734-.52 1.917c-.243.525-.638 3.482-.723 5.41l-.077 1.757.152-1.584c.978-10.208 5.943-20.18 13.776-27.669l1.629-1.557.446 1.405c3.654 11.507 2.503 24.533-3.054 34.571-2.609 4.714-9.467 13.334-10.369 13.033-.385-.128-1.658-5.41-2.191-9.09l-.233-1.609.082 1.333c.103 1.666.392 3.727.584 4.167.08.183.306 1.12.502 2.083s.417 1.825.491 1.917.219.485.323.875c.133.495.279.708.485.708.631 0 6.596-6.597 7.512-8.308a4.21 4.21 0 0 1 .453-.663c.717-.808 2.494-3.887 3.719-6.446 1.271-2.654 1.415-2.994 1.765-4.166.164-.55.359-1.081.433-1.179s.292-.886.484-1.75.411-1.721.489-1.905c.682-1.613 1.072-11.345.597-14.916l-.279-2.209c-.111-.893-.264-1.625-.341-1.625s-.14-.172-.14-.382c0-.599-.662-3.646-.913-4.201-.124-.275-.277-.776-.34-1.113-.145-.788-.437-.889-1.025-.355m-87.326 3.186c9.388 10.366 13.299 21.994 11.867 35.282-.421 3.904-1.856 10.417-2.296 10.417-.299 0-4.05-3.904-5.525-5.75-7.012-8.781-9.87-16.812-9.848-27.667.012-5.941 1.159-13.48 2.352-15.462.11-.181 1.903 1.471 3.45 3.18m72.042 28.074c-.138.515-.094 3.262.062 3.875.078.306.135-.419.147-1.875.02-2.364-.017-2.715-.209-2m-93.349.448c-.109.178.553 3.547.723 3.677.061.046.246.608.412 1.25s.403 1.391.525 1.666.384.949.582 1.498.417 1.074.486 1.167.262.544.428 1.002.75 1.696 1.297 2.75c.877 1.689 1.322 2.463 2.708 4.718 1.912 3.108 5.496 6.977 8.792 9.491 1.991 1.518 2.297 1.734 3.125 2.203a56.44 56.44 0 0 1 1.802 1.086c1.012.636 5.335 2.835 5.574 2.835.063 0 .586.214 1.161.475s1.271.53 1.546.597.725.225 1 .353c.547.255 3.015.961 4.796 1.373 1.194.276 1.781.129 1.321-.331-.11-.11-.2-.37-.2-.577 0-.467-.615-3.186-.824-3.64-.084-.183-.279-.746-.434-1.25a19.17 19.17 0 0 0-.494-1.416 34.29 34.29 0 0 1-.462-1.167c-.676-1.799-2.893-6.356-3.587-7.372a135.12 135.12 0 0 1-1.126-1.711c-.952-1.466-.718-1.147-2.443-3.333-1.251-1.585-3.582-4.06-4.635-4.922a224.76 224.76 0 0 0-3.995-3.038c-.229-.168-.979-.631-1.667-1.03s-1.441-.855-1.676-1.015c-1.788-1.222-7.79-3.717-10.907-4.535-.734-.192-1.559-.44-1.834-.551-.719-.29-1.88-.437-1.994-.253m125.783.02c-.391.077-.778.182-.86.233s-.885.283-1.783.517-1.71.482-1.806.553-.511.222-.923.337a12.08 12.08 0 0 0-1.417.508c-.366.164-.929.396-1.25.514-1.081.4-4.741 2.197-5.886 2.89l-1.852 1.105c-2.904 1.691-7.255 5.486-9.554 8.333l-1.1 1.333a6.87 6.87 0 0 0-.538.75c-.171.275-.352.538-.402.584s-.388.554-.754 1.129l-1.063 1.666c-.933 1.45-3.129 6.003-3.698 7.669-.179.524-.43 1.177-.557 1.452s-.36 1.025-.517 1.667-.346 1.242-.418 1.333c-.157.198-.661 2.771-.661 3.373 0 1.276 10.144-2.333 15.334-5.456l1.583-.932c1.768-.991 5.744-4.188 7.319-5.886l1.181-1.263c.986-1.044 2.75-3.34 2.75-3.58 0-.095.073-.172.163-.172s.319-.282.509-.625a33.13 33.13 0 0 1 .998-1.625c.359-.55.802-1.322.985-1.716s.472-.919.643-1.167a6.09 6.09 0 0 0 .538-1.034c.126-.321.275-.621.332-.667s.281-.533.498-1.083.485-1.15.596-1.333.331-.746.491-1.25.351-.994.425-1.087.281-.705.462-1.357.402-1.326.492-1.496.289-.91.443-1.644.352-1.51.44-1.727c.187-.456.053-1.031-.235-1.004-.108.01-.517.081-.908.158m-123.318.649c17.037 4.393 29.192 16.771 33.282 33.891.394 1.654.504 1.57-1.455 1.117-9.461-2.185-19.319-8.249-24.792-15.25-4.172-5.338-9.235-16.257-9.254-19.959-.002-.375-.025-.377 2.219.201m124.184-.034c-2.859 12.877-10.146 23.355-20.488 29.458-4.694 2.769-14.518 6.538-15.218 5.838-.577-.577 2.699-9.604 5.005-13.792 5.977-10.852 16.983-18.994 29.335-21.7 1.496-.328 1.483-.33 1.366.196m-33.015 4.542c0 .687.029.968.065.625a7.25 7.25 0 0 0 0-1.25c-.036-.344-.065-.063-.065.625M72.946 259.843c-10.829 1.258-20.765 10.43-23.507 21.699-.244.999.177.386.457-.667a15.16 15.16 0 0 1 .679-1.958c.208-.459.438-1.021.51-1.25.163-.522 2.246-4.554 2.411-4.667.066-.046.217-.271.334-.5.377-.735 2.451-3.382 3.536-4.513 1.43-1.491 4.684-4.154 5.076-4.154.089 0 .307-.132.485-.293.325-.295 3.046-1.711 3.283-1.708.07.001.446-.149.836-.332.75-.353 3.697-1.096 5.371-1.354 3.184-.492 15.158.117 19.986 1.016l3.18.584c1.284.235 2.521.499 2.75.587s1.167.315 2.084.504 1.816.414 2 .498.971.307 1.75.493 1.566.41 1.75.497.896.316 1.583.508 1.4.422 1.583.511.896.343 1.584.564c1.788.576 3.722 1.279 3.916 1.424.092.069.467.22.834.337s1.137.426 1.712.688 1.08.476 1.122.476.734.309 1.537.687l2.545 1.175c.596.268 1.196.557 1.334.642s.587.304 1 .489.862.414 1 .509.487.281.777.415c.494.227 4.397 2.365 5.747 3.148l1.396.81c.433.252.854.459.934.459s.146.066.146.147.243.27.541.419c.496.247 1.529.892 3.473 2.166l5.152 3.445c.046.058.384.301.75.538s1.042.702 1.5 1.03l1.247.884c.356.247 2.554 1.864 3.587 2.638l1.768 1.367 1.916 1.467.481.35-.708 1.009c-.389.555-.707 1.091-.707 1.191s-.058.182-.128.182-.538.619-1.039 1.375-1.007 1.475-1.124 1.596a2.98 2.98 0 0 0-.385.546c-.143.268-1.006 1.457-2.587 3.566-.137.184-.812 1.046-1.498 1.917l-1.619 2.07c-.204.267-.535.66-.736.873s-.426.492-.5.621c-.359.625-4.631 5.314-6.985 7.665-2.66 2.657-6.433 6.07-7.669 6.938-.196.137-1.112.826-2.036 1.531s-1.827 1.361-2.007 1.458-.428.272-.549.391-.522.396-.888.617-.705.447-.75.502c-.08.095-.861.579-2.426 1.501-1.016.598-5.09 2.833-5.165 2.833-.035 0-.61.254-1.278.564-2.378 1.104-3.057 1.397-3.715 1.6-.366.114-.816.297-1 .408-.288.174-3.079 1.101-6.083 2.019-.504.154-1.779.464-2.833.688l-3 .642-1.084.235.917-.086c2.389-.224 7.744-1.651 11.656-3.105 14.864-5.524 27.257-15.529 39.7-32.048 2.507-3.328 6.477-9.085 6.477-9.392 0-.157-4.952-3.936-8.333-6.358-22.532-16.142-42.529-23.955-64.833-25.329-3.13-.193-7.539-.191-9.221.005m164.971 11.738c-.184.033-1.234.147-2.334.253-3.025.291-5.737.666-6.666.922l-2.167.559c-2.872.711-3.299 1-2.611 1.762 2.932 3.25 6.746 6.353 11.428 9.299.838.527 4.604 2.457 4.796 2.457.07 0 .523.179 1.007.398 6.028 2.726 16.729 3.767 24.32 2.365 4.302-.794 7.518-1.701 7.61-2.144.047-.231-2.676-3.118-4.053-4.296-1.186-1.014-3.147-2.58-3.747-2.99-.321-.22-.621-.447-.667-.505-.143-.18-3.122-2.062-4.25-2.685-5.358-2.959-9.49-4.259-16.333-5.138-1.522-.196-5.724-.366-6.333-.257m90.75.085c-.413.067-1.437.207-2.277.311-2.71.336-5.301.97-8.535 2.088-1.216.42-1.589.581-4.022 1.736-1.734.824-5.546 3.083-6.583 3.902-.182.144-1.709 1.301-2.592 1.964-1.735 1.303-5.865 5.422-5.793 5.779.098.484 2.824 1.253 7.611 2.147 7.459 1.394 18.144.37 24.274-2.326 1.977-.869 3.44-1.577 4.074-1.972.408-.254.803-.462.878-.462.311 0 5.452-3.434 6.362-4.25a19.38 19.38 0 0 1 1.029-.824c1.149-.859 5.24-4.973 5.24-5.268 0-.697-4.864-1.876-11.25-2.726-2.063-.275-6.978-.332-8.416-.099m-85.25.342c9.984.74 19.647 5.381 27.5 13.205l2.166 2.159-.583.252c-1.924.832-7.657 1.902-11.923 2.225-12.805.97-24.936-3.702-34.567-13.314-2.396-2.391-2.444-2.122.519-2.933 5.269-1.443 11.28-2.01 16.888-1.594m95.75.238c3.784.598 8.833 1.876 8.833 2.235 0 1.04-8.13 7.573-12.635 10.154-9.918 5.682-23.401 6.934-34.945 3.246l-1.497-.478 1.997-2c7.407-7.42 16.613-12.113 26.123-13.317 2.537-.322 9.674-.227 12.124.16M48.764 284.098c-.257 1.056-.424 1.964-.37 2.018.13.13.186-.062.605-2.091.483-2.336.342-2.292-.235.073m-.674 3.158c-.065.516-.083.973-.041 1.016s.13-.346.195-.862.082-.973.04-1.015-.13.345-.194.861m-.425 3.367c-.232 2.339-.128 9.209.16 10.544.145.677.153.636.081-.417-.242-3.543-.271-6.904-.08-9.388.249-3.247.138-3.758-.161-.739m220.168-.371c-1.054.129-2.329.347-2.833.484s-1.329.338-1.833.445c-3.319.706-10.802 4.095-12.573 5.694-.178.16-.403.292-.5.292s-.377.169-.62.375-.869.675-1.39 1.041c-2.559 1.8-7.705 6.636-7.552 7.097.134.4 3.044 1.265 6.468 1.921 5.536 1.061 14.383 1.061 18.619 0 1.135-.284 3.139-.832 3.673-1.003.659-.212.406.152-.75 1.079-.619.496-1.163.951-1.209 1.011-.241.314-3.765 2.211-4.708 2.535-.439.15-.058 1.826.649 2.856.124.181.226.429.226.552s.183.612.406 1.088a27.16 27.16 0 0 1 .772 1.864c.202.55.43 1.082.509 1.181s.256.512.396.917c.495 1.431.988 2.319 1.286 2.319.32 0 1.665-.498 1.798-.666.045-.057.514-.278 1.041-.489s.959-.431.959-.489.33-.241.733-.407.864-.447 1.025-.625.369-.324.46-.324c.408 0 3.614-2.634 5.198-4.269 1.832-1.891 3.584-4.038 3.584-4.392 0-.095.069-.172.153-.172s.325-.282.534-.625.463-.7.561-.792.552-.726 1.007-1.411l1.031-1.5a35.68 35.68 0 0 0 .712-.969l.511-.713 1.044 1.38c.574.759 1.423 1.942 1.887 2.63 2.055 3.043 3.347 4.708 4.926 6.344 1.202 1.246 3.158 2.992 3.967 3.54 1.822 1.236 2.539 1.657 4.649 2.73 2.966 1.507 3.222 1.532 3.61.344.157-.481.344-.95.416-1.042s.29-.579.485-1.083a32.42 32.42 0 0 1 .604-1.455c.136-.296.359-.852.494-1.235s.311-.779.391-.879.318-.663.531-1.253.522-1.336.687-1.66c.378-.743.381-1.169.008-1.288-.485-.154-3.119-1.439-3.208-1.566-.046-.064-.323-.24-.616-.39s-.968-.639-1.5-1.086c-1.113-.936-2.421-2.14-2.051-1.889.308.209 2.867.981 4.328 1.305 4.812 1.068 13.465 1.067 18.589-.002 3.067-.641 4.877-1.093 5.333-1.335.275-.146.634-.265.797-.266 1.754-.006-4.577-5.741-10.214-9.253-1.845-1.15-2.423-1.475-4.125-2.321-3.924-1.951-8.204-3.318-12.708-4.056-3.156-.518-13.507-.313-15.583.308-1.737.519-2.809.592-4.25.289-4.194-.883-12.566-1.239-16.834-.716m11.667.176a80.29 80.29 0 0 1 4.375.652l2.125.391 2.157-.398c15.71-2.903 29.986 1.402 41.481 12.507l2.067 1.997-.556.227c-.784.32-3.979 1.145-5.565 1.437-8.003 1.472-16.275 1.112-22.409-.975-1.638-.557-1.655-.458-.167.969 1.755 1.684 4.233 3.271 6.379 4.087.245.093.446.23.446.304 0 .134-4.123 10.053-4.218 10.148-.1.1-3.887-1.725-5.032-2.424-4.286-2.616-7.325-5.622-10.752-10.634-1.981-2.899-3.522-4.902-3.719-4.837-.101.034-1.311 1.637-2.689 3.563-4.162 5.816-5.855 7.695-9.187 10.197-2.924 2.195-7.265 4.429-7.555 3.887-.266-.497-4.185-9.911-4.14-9.946.023-.018.833-.412 1.799-.874 2.304-1.104 7.734-5.382 6.113-4.816-8.242 2.876-18.71 3.004-27.921.341-2.039-.589-2.066-.442.558-3.026 7.175-7.066 16.084-11.62 24.827-12.689l1.916-.244c1.26-.182 7.641-.079 9.667.156M48.029 302.5c-.005.229.052.717.128 1.083.089.428.141.518.148.25.005-.229-.053-.716-.129-1.083-.088-.428-.141-.517-.147-.25m.35 2.333c.364 1.701.691 2.986.746 2.931.113-.113-.497-3.006-.67-3.181-.109-.11-.134-.025-.076.25m.967 4.009c.019.358.626 1.946.641 1.677.007-.127-.075-.539-.182-.916-.205-.722-.481-1.181-.459-.761m.987 3.088c0 .273 1.406 3.568 2.156 5.054 4.003 7.928 10.605 14.131 18.511 17.395 1.758.725 4.928 1.678 5.208 1.565.124-.05.089-.09-.085-.098-.162-.007-.424-.084-.584-.172s-.814-.282-1.456-.433-1.466-.408-1.833-.571a12.28 12.28 0 0 0-1.078-.423c-.422-.129-2.559-1.139-3.005-1.42-.138-.087-.622-.354-1.076-.595s-1.016-.567-1.25-.725l-1.508-1.013c-.596-.4-1.121-.768-1.166-.819s-.384-.316-.75-.589c-.967-.718-3.481-3.16-4.566-4.434-1.4-1.645-2.649-3.297-3.023-3.996-.114-.212-.278-.465-.365-.562-.259-.291-1.044-1.731-1.959-3.594l-1.076-2.167c-.12-.229-.349-.829-.51-1.333-.278-.872-.585-1.433-.585-1.07m28 24.499c1.064.218 3.911.48 3.584.33-.238-.109-3.92-.596-4.327-.572-.187.01.147.119.743.242m15.334-.069c-2.655.315-3.219.464-1.417.375 1.98-.098 4.891-.538 3.5-.529-.458.003-1.396.072-2.083.154m-9.449.598c1.174.029 3.049.029 4.167 0s.157-.053-2.135-.052-3.206.023-2.032.052m196.949 8.318c-3.418.661-4.628.84-7.167 1.058-4.181.358-5.056.494-2.667.414 2.443-.083 7.475-.737 10.278-1.336 3.238-.693 2.926-.788-.444-.136m-25.75.734c.366.075.891.132 1.166.126.375-.008.313-.044-.25-.145-1.005-.178-1.794-.163-.916.019m1.75.202c.14.155 5.094.623 6.376.602 1.581-.025 1.211-.096-1.626-.31l-3.584-.28c-.687-.057-1.212-.062-1.166-.012m8.965.745a20.2 20.2 0 0 0 2-.001c.523-.033.051-.059-1.049-.059s-1.528.027-.951.06" fill="#cdced4"/></svg>